<svg width="60" height="60" viewBox="0 0 60 60" fill="none" xmlns="http://www.w3.org/2000/svg">
<path d="M29.64 21.42C33.48 21.6 34.47 24.87 34.53 26.4H39.9C39.66 20.46 35.43 16.83 29.55 16.83C22.92 16.83 18 21 18 30.42C18 36.24 20.79 43.14 29.52 43.14C36.18 43.14 39.75 38.19 39.84 34.29H34.47C34.38 36.06 33.12 38.43 29.58 38.61C25.65 38.49 24 35.43 24 30.42C24 21.75 27.84 21.48 29.64 21.42ZM30 0C13.44 0 0 13.44 0 30C0 46.56 13.44 60 30 60C46.56 60 60 46.56 60 30C60 13.44 46.56 0 30 0ZM30 54C16.77 54 6 43.23 6 30C6 16.77 16.77 6 30 6C43.23 6 54 16.77 54 30C54 43.23 43.23 54 30 54Z" fill="#B0B0B0"/>
</svg>
